<svg xmlns="http://www.w3.org/2000/svg" width="411" height="559.49" fill-rule="evenodd" clip-rule="evenodd"
     image-rendering="optimizeQuality" shape-rendering="geometricPrecision" text-rendering="geometricPrecision">
    <path d="M70.73 24h256.78c16.33 0 31.2 6.71 41.98 17.48C380.29 52.29 387 67.17 387 83.5v443.54c0 4.66-3.79 8.45-8.45 8.45a8.412 8.412 0 0 1-5.42-1.96L205.42 402.99 37.64 533.68c-3.66 2.85-8.97 2.21-11.82-1.46a8.365 8.365 0 0 1-1.78-5.18L24 70.73c0-12.82 5.25-24.5 13.72-32.98C46.25 29.24 57.92 24 70.73 24Z"
          style="fill:none;fill-opacity:1;stroke:#000;stroke-width:48;stroke-dasharray:none;stroke-opacity:1"/>
</svg>