<svg xmlns="http://www.w3.org/2000/svg" data-name="Layer 1" viewBox="0 0 105.34 122.88"><path d="M17.52 0A17.57 17.57 0 0 0 0 17.52v91.29c0 9.19 7.48 16.63 16.63 13.24h84.57a4.15 4.15 0 0 0 4.14-4.14v-12.49h-7.23v9.83H16.27a9.24 9.24 0 0 1 0-18.48h78.5c3.68.17 7.08.11 7.23-2.53V0H90.525c.001.046.006.09.006.137V52.03c0 .545-.374.989-.836.989a.76.76 0 0 1-.537-.229l-16.6-15.273-16.605 15.29c-.362.334-.888.258-1.17-.171a1.095 1.095 0 0 1-.176-.606L54.604 0zm-1.27 100.78a1.39 1.39 0 0 0-1.39 1.38v.84a1.39 1.39 0 0 0 1.39 1.38h75.16a1.39 1.39 0 0 0 1.38-1.38v-.84a1.38 1.38 0 0 0-1.38-1.38zm0 7.14a1.39 1.39 0 0 0-1.39 1.38v.84a1.39 1.39 0 0 0 1.39 1.38h75.16a1.39 1.39 0 0 0 1.38-1.38v-.84a1.38 1.38 0 0 0-1.38-1.38z" style="fill-rule:evenodd"/></svg>