<?xml version="1.0" encoding="UTF-8"?>
<svg width="20" height="17.004" fill="none" version="1.1" viewBox="0 0 20 17.004" xmlns="http://www.w3.org/2000/svg">
 <path d="m19 1.2379s-2.25-0.527-4.5 0c-2.25 0.528-4.5 2.11-4.5 2.11v12.656s2.25-1.582 4.5-2.11c2.25-0.527 4.5 0 4.5 0v-12.655zm-18 0s2.25-0.527 4.5 0c2.25 0.528 4.5 2.11 4.5 2.11v12.656s-2.25-1.582-4.5-2.11c-2.25-0.527-4.5 0-4.5 0v-12.655z" stroke="currentColor" stroke-linecap="round" stroke-linejoin="round" stroke-width="2"/>
 <path fill="currentColor" d="m12.874 0.9105h3.4301c0.21814 0 0.41678 0.089634 0.56078 0.2335 0.14427 0.1444 0.2339 0.34317 0.2339 0.56132v5.9249c0 0.062254-0.05063 0.11288-0.11288 0.11288a0.11237 0.11237 0 0 1-0.07241-0.026183l-2.2403-1.7438-2.2413 1.7458c-0.04889 0.038069-0.11982 0.029518-0.15789-0.019505a0.11174 0.11174 0 0 1-0.02378-0.069196l-5.45e-4 -6.0955c0-0.17125 0.07013-0.32728 0.18328-0.44056 0.11395-0.11368 0.26984-0.18368 0.44096-0.18368" clip-rule="evenodd" fill-rule="evenodd" image-rendering="optimizeQuality" shape-rendering="geometricPrecision" stroke-width=".013358"/>
</svg>
