<svg xmlns="http://www.w3.org/2000/svg" fill-rule="evenodd" clip-rule="evenodd" image-rendering="optimizeQuality"
     shape-rendering="geometricPrecision" text-rendering="geometricPrecision" viewBox="0 0 363 511.49">
    <path d="M46.73 0h256.78c16.33 0 31.2 6.71 41.98 17.48C356.29 28.29 363 43.17 363 59.5v443.54c0 4.66-3.79 8.45-8.45 8.45a8.412 8.412 0 0 1-5.42-1.96L181.42 378.99 13.64 509.68c-3.66 2.85-8.97 2.21-11.82-1.46a8.365 8.365 0 0 1-1.78-5.18L0 46.73c0-12.82 5.25-24.5 13.72-32.98C22.25 5.24 33.92 0 46.73 0Z"/>
</svg>