<svg xmlns="http://www.w3.org/2000/svg" xml:space="preserve" viewBox="0 0 122.88 122.88">
    <path fill="currentColor" fill-rule="evenodd" d="M61.44 0c33.926 0 61.44 27.514 61.44 61.44s-27.514 61.439-61.44 61.439C27.513 122.88 0 95.366 0 61.44S27.513 0 61.44 0m37.065 37.049L37.051 98.503a44.14 44.14 0 0 0 24.389 7.307c24.5 0 44.369-19.869 44.369-44.369 0-9.01-2.69-17.391-7.304-24.392m-74.127 48.78 61.453-61.454a44.155 44.155 0 0 0-24.391-7.304c-24.5 0-44.369 19.87-44.369 44.369a44.15 44.15 0 0 0 7.307 24.389" clip-rule="evenodd"/>
</svg>
