<?xml version="1.0" encoding="UTF-8"?>
<svg version="1.1" viewBox="0 0 128 128" xml:space="preserve" xmlns="http://www.w3.org/2000/svg">
<g id="_x33_" transform="matrix(.95477 .95477 -.95611 .95611 64.037 -58.243)">
	<path d="m128 63.954c0 2.006-0.797 3.821-2.136 5.127-1.308 1.337-3.125 2.133-5.166 2.133h-49.396v49.356c0 4.012-3.284 7.292-7.302 7.292-2.009 0-3.827-0.828-5.166-2.134-1.308-1.337-2.136-3.152-2.136-5.159v-49.355h-49.396c-4.05 0-7.302-3.248-7.302-7.26 0-2.006 0.797-3.853 2.136-5.159 1.308-1.306 3.125-2.134 5.166-2.134h49.395v-49.355c0-4.012 3.284-7.26 7.302-7.26 2.009 0 3.827 0.828 5.166 2.133 1.308 1.306 2.136 3.121 2.136 5.127v49.356h49.395c4.051 0 7.304 3.248 7.304 7.292z"/>
</g>

</svg>
