<svg xmlns="http://www.w3.org/2000/svg" xml:space="preserve" viewBox="0 0 128 128">
    <path fill="currentColor" d="M125.1 125.115c-1.917 1.918-4.414 2.892-6.94 2.862-2.528.03-5.024-.944-6.973-2.893L64.026 77.922l-47.19 47.19c-3.836 3.836-10.108 3.837-13.944 0C.974 123.194.03 120.667 0 118.14c.03-2.527.974-5.053 2.893-6.972l47.19-47.189L2.92 16.817C-.947 12.95-.946 6.74 2.89 2.904 4.808.986 7.335-.019 9.862.011c2.497 0 5.024.943 6.973 2.892l47.16 47.16 47.19-47.188c3.835-3.836 10.076-3.806 13.912.03 1.918 1.918 2.863 4.446 2.893 6.972a9.794 9.794 0 0 1-2.862 6.941l-47.19 47.19 47.16 47.161a9.832 9.832 0 0 1 .003 13.946"/>
</svg>
