<svg xmlns="http://www.w3.org/2000/svg" xml:space="preserve" width="122.88" height="122.88"><path d="M7.514 0a7.495 7.495 0 0 0-5.307 2.207A7.49 7.49 0 0 0 0 7.514v107.853c0 2.067.845 3.946 2.207 5.307a7.49 7.49 0 0 0 5.307 2.207h107.853a7.487 7.487 0 0 0 5.307-2.207 7.495 7.495 0 0 0 2.207-5.307V7.514a7.49 7.49 0 0 0-2.207-5.307A7.49 7.49 0 0 0 115.367 0H7.514zm75.142 31a8.744 8.744 0 0 1 6.24 2.59c3.45 3.466 3.464 9.102.034 12.584L73.87 61.447l15.074 15.287c3.402 3.458 3.356 9.058-.103 12.51-3.46 3.45-9.023 3.441-12.424-.015l-14.97-15.182-15 15.209a8.751 8.751 0 0 1-12.464.035c-3.449-3.466-3.463-9.102-.033-12.584L49.01 61.434l-15.074-15.29c-3.403-3.457-3.356-9.055.103-12.507 3.46-3.45 9.021-3.443 12.422.013l14.973 15.184 15-15.211A8.737 8.737 0 0 1 82.656 31z"/></svg>