<?xml version="1.0" encoding="UTF-8"?>
<svg enable-background="new 0 0 120.91 122.88" version="1.1" viewBox="0 0 120.91 122.88" xml:space="preserve" xmlns="http://www.w3.org/2000/svg">
    <path fill="currentColor" d="m73.363 109.69c1.45-0.49 3.02 0.3 3.51 1.75s-0.3 3.02-1.75 3.51c-2.31 0.78-4.7 1.38-7.16 1.77-2.43 0.4-4.9 0.6-7.38 0.6-2.53 0-5.04-0.21-7.51-0.62-2.53-0.42-4.97-1.04-7.3-1.84-1.45-0.5-2.23-2.08-1.73-3.53s2.08-2.23 3.53-1.73c2.08 0.71 4.22 1.26 6.38 1.62 2.13 0.35 4.34 0.54 6.62 0.54 2.24 0 4.41-0.18 6.49-0.52 2.17-0.34 4.27-0.87 6.3-1.55z"/>
    <path fill="currentColor" d="m96.664 79.59c-3.86 0-7-3.14-7-7s3.14-7 7-7c3.86 0 7 3.14 7 7s-3.14 7-7 7m7.942 18h-15.885a4.062 4.062 0 0 1-4.058-4.058c0-6.616 5.384-12 12-12 6.617 0 12 5.384 12 12a4.062 4.062 0 0 1-4.057 4.058"/>
    <path fill="currentColor" d="m24.248 79.59c-3.86 0-7-3.14-7-7s3.14-7 7-7 7 3.14 7 7-3.14 7-7 7m7.942 18h-15.885a4.062 4.062 0 0 1-4.058-4.058c0-6.616 5.384-12 12-12 6.617 0 12 5.384 12 12a4.062 4.062 0 0 1-4.057 4.058"/>
    <path fill="currentColor" d="m86.617 40.608c-1.17-0.98-1.32-2.73-0.34-3.9s2.73-1.32 3.9-0.34c0.56 0.47 1 0.85 1.33 1.15 0.4 0.36 0.82 0.77 1.28 1.21 1.68 1.66 3.23 3.42 4.61 5.28s2.64 3.84 3.75 5.93c0.71 1.36 0.19 3.04-1.16 3.75-1.36 0.71-3.04 0.19-3.75-1.16-0.95-1.8-2.05-3.54-3.29-5.19-1.25-1.67-2.6-3.23-4.05-4.65-0.33-0.33-0.71-0.68-1.12-1.06-0.49-0.44-0.88-0.78-1.16-1.02z"/>
    <path fill="currentColor" d="m24.717 54.506c-0.66 1.38-2.32 1.96-3.7 1.3s-1.96-2.31-1.3-3.7c1.46-3.06 3.26-5.93 5.34-8.57 2.1-2.66 4.48-5.07 7.09-7.19 1.19-0.97 2.94-0.79 3.9 0.4 0.97 1.19 0.79 2.94-0.4 3.9-2.31 1.88-4.41 4-6.24 6.32-1.83 2.33-3.4 4.85-4.69 7.54z"/>
    <path fill="currentColor" d="m60.804 19.564c-3.86 0-7-3.14-7-7 0-3.86 3.14-7 7-7s7 3.14 7 7c0 3.86-3.14 7-7 7m7.942 18h-15.885a4.062 4.062 0 0 1-4.058-4.058c0-6.616 5.384-12 12-12 6.617 0 12 5.384 12 12a4.062 4.062 0 0 1-4.057 4.058"/>
    <path fill="currentColor" d="m67.716 71.225h12.593v14.746c-0.02344 0.41195-0.55596 0.42199-1.132 0.3952h-11.655c-0.7971 0-1.4468 0.64974-1.4468 1.4435 0 0.7971 0.64974 1.4468 1.4468 1.4468h12.184v-1.5373h1.132v1.9559c0 0.35501-0.29138 0.64639-0.64639 0.64639h-12.616c-1.4301 0.52917-2.6023-0.63969-2.6023-2.0731v-14.284c0-1.5071 1.2325-2.7396 2.743-2.7396m-15.008 8.9623c-0.62294 0-1.122-0.50237-1.122-1.1186 0-0.61959 0.50572-1.1186 1.122-1.1186h2.7296c0.62294 0 1.122 0.50237 1.122 1.1186 0 0.61959-0.50237 1.1186-1.122 1.1186zm-5.8074-1.1186c0-0.61959 0.50572-1.1186 1.1186-1.1186h0.24784c0.62294 0 1.1186 0.50237 1.1186 1.1186 0 0.61959-0.50237 1.1186-1.1186 1.1186h-0.24784c-0.61959 0-1.1186-0.49902-1.1186-1.1186m0-18.327c0-0.61959 0.50572-1.1186 1.1186-1.1186h0.29473c0.62294 0 1.122 0.50237 1.122 1.1186 0 0.61959-0.50237 1.1186-1.122 1.1186h-0.29473c-0.61624 0-1.1186-0.50237-1.1186-1.1186m1.1186 10.282c-0.62294 0-1.1186-0.50237-1.1186-1.122 0-0.61959 0.50572-1.1186 1.1186-1.1186h0.29473c0.62294 0 1.122 0.50237 1.122 1.1186 0 0.6196-0.50237 1.122-1.122 1.122zm4.6888-9.1633c-0.62294 0-1.122-0.50572-1.122-1.1186 0-0.61959 0.50572-1.1186 1.122-1.1186h12.703c0.62294 0 1.1186 0.50237 1.1186 1.1186 0 0.61959-0.50237 1.1186-1.1186 1.1186zm-10.426-11.538h29.422c0.71672 0 1.3698 0.29138 1.8387 0.76026a2.6056 2.6056 0 0 1 0.76026 1.8387v13.782h-2.2339v-13.772c0-0.10048-0.04019-0.1909-0.10717-0.26123-0.06698-0.06364-0.16076-0.10717-0.26124-0.10717h-29.419c-0.10047 0-0.19425 0.04019-0.26123 0.10717-0.07033 0.06364-0.10382 0.16076-0.10382 0.26123v33.904c0 0.10048 0.04019 0.1909 0.10717 0.26124 0.06364 0.07033 0.15741 0.10717 0.26123 0.10717h17.674c0.211 0.82054 0.44544 1.5406 0.76696 2.2238h-18.444c-0.72007 0-1.3698-0.29138-1.8387-0.76026a2.5725 2.5725 0 0 1-0.76361-1.8353v-33.907c0-0.71672 0.29138-1.3732 0.76026-1.842a2.5936 2.5936 0 0 1 1.842-0.76026m10.426 20.701a1.1203 1.1203 0 1 1 0-2.2406h8.3595c0.62294 0 1.1186 0.50237 1.1186 1.1186 0 0.6196-0.50237 1.122-1.1186 1.122zm15.517 2.3411h0.45548c0.23444 0 0.42534 0.15406 0.42534 0.34496v10.774c0 0.18755-0.1909 0.34496-0.42534 0.34496h-0.45548c-0.23444 0-0.42534-0.15406-0.42534-0.34496v-10.774c0-0.1909 0.1909-0.34496 0.42534-0.34496"
          clip-rule="evenodd" fill-rule="evenodd" stroke-width=".33492"/>
</svg>
