<svg xmlns="http://www.w3.org/2000/svg" xml:space="preserve" width="29.957" height="122.88"><path fill-rule="evenodd" d="M14.978 0c8.27 0 14.979 6.708 14.979 14.979 0 8.27-6.709 14.976-14.979 14.976C6.708 29.954 0 23.249 0 14.979 0 6.708 6.708 0 14.978 0zm0 92.926c8.27 0 14.979 6.708 14.979 14.979s-6.709 14.976-14.979 14.976C6.708 122.88 0 116.175 0 107.904s6.708-14.978 14.978-14.978zm0-46.463c8.27 0 14.979 6.708 14.979 14.979S23.248 76.42 14.978 76.42C6.708 76.419 0 69.712 0 61.441s6.708-14.978 14.978-14.978z" clip-rule="evenodd"/></svg>