<svg xmlns="http://www.w3.org/2000/svg" xml:space="preserve" style="enable-background:new 0 0 133.82 122.88" viewBox="0 0 133.82 122.88">
    <path fill="currentColor" d="M64.96 111.2a6.884 6.884 0 0 1-.13 9.73 6.875 6.875 0 0 1-9.73-.14L1.97 66.01l4.93-4.8-4.95 4.8a6.902 6.902 0 0 1 .15-9.76c.08-.08.16-.15.24-.22L55.1 2.09c2.65-2.73 7-2.79 9.73-.14 2.73 2.65 2.78 7.01.13 9.73L16.5 61.23z"/>
    <path transform="translate(50, 0)" fill="currentColor" d="M64.96 111.2a6.884 6.884 0 0 1-.13 9.73 6.875 6.875 0 0 1-9.73-.14L1.97 66.01l4.93-4.8-4.95 4.8a6.902 6.902 0 0 1 .15-9.76c.08-.08.16-.15.24-.22L55.1 2.09c2.65-2.73 7-2.79 9.73-.14 2.73 2.65 2.78 7.01.13 9.73L16.5 61.23z"/>
</svg>
