<svg xmlns="http://www.w3.org/2000/svg" xml:space="preserve" width="122.88" height="29.956"><path fill-rule="evenodd" d="M122.88 14.978c0 8.271-6.708 14.979-14.979 14.979s-14.976-6.708-14.976-14.979C92.926 6.708 99.631 0 107.901 0s14.979 6.708 14.979 14.978m-92.926 0c0 8.271-6.708 14.979-14.979 14.979S0 23.248 0 14.978 6.705 0 14.976 0s14.978 6.708 14.978 14.978m46.463 0c0 8.271-6.708 14.979-14.979 14.979-8.27 0-14.978-6.708-14.978-14.979C46.46 6.708 53.168 0 61.438 0c8.271 0 14.979 6.708 14.979 14.978" clip-rule="evenodd"/></svg>