<?xml version="1.0" encoding="UTF-8"?>
<svg enable-background="new 0 0 115.28 122.88" version="1.1" viewBox="0 0 115.28 122.88" xml:space="preserve" xmlns="http://www.w3.org/2000/svg"><style type="text/css">.st0{fill-rule:evenodd;clip-rule:evenodd;}</style><path d="m25.381 57c-4.16 0-7.5605 3.4008-7.5605 7.5508v31.42c0 4.16 3.4205 7.5586 7.5605 7.5586h74.801v0.01h7.5391c4.15 0 7.5586-3.4086 7.5586-7.5586v-31.42c0-4.15-3.3986-7.5605-7.5586-7.5605h-19.01z" fill="#85b719"/><path d="m64.939 0c-0.14 0-0.28016 7.8125e-4 -0.41016 0.050781h-58.719c-1.57 0-3.0396 0.63922-4.0996 1.6992-1.05 1.06-1.7012 2.4896-1.7012 4.0996v111.24c0 1.61 0.64117 3.0396 1.7012 4.0996s2.4896 1.7012 4.0996 1.7012h86.18c1.61 0 3.0396-0.64117 4.0996-1.7012 1.05-1.06 1.6992-2.4896 1.6992-4.0996v-12.561h-7.5391v10.16c0 0.13-0.19008 0.32016-0.33008 0.41016-0.1 0.09-0.08953 0.17969-0.26953 0.17969h-81.51c-0.13 0-0.32016-0.0397-0.41016-0.17969-0.09-0.09-0.17969-0.27016-0.17969-0.41016v-106.45c0-0.19 0.039453-0.31992 0.18945-0.41992 0.09-0.09 0.23016-0.17969 0.41016-0.17969h52.52v20.93c0 2.16 0.87078 4.7399 2.3008 6.1699s4.4491 2.5996 6.6191 2.5996h20.67v18.66h7.5293v-22.141c0.04-0.24 0.0918-0.41844 0.0918-0.64844-6e-6 -0.78-0.37086-1.4705-0.88086-1.9805l-29.99-30.361c-0.09-0.09-0.14047-0.12969-0.23047-0.17969h-0.08984c-0.46001-0.41-1.11-0.68945-1.75-0.68945z"/><text x="22.333241" y="92.002975" fill="#000000" font-family="sans-serif" font-size="33.333px" style="line-height:1.35" xml:space="preserve"><tspan x="22.333241" y="92.002975" fill="#ffffff" font-family="sans-serif" font-size="33.333px" font-weight="bold">EPUB</tspan></text></svg>
