<?xml version="1.0" encoding="UTF-8"?>
<svg width="128" height="128" clip-rule="evenodd" fill-rule="evenodd" image-rendering="optimizeQuality"
     shape-rendering="geometricPrecision" text-rendering="geometricPrecision" version="1.1" viewBox="0 0 128 128"
     xmlns="http://www.w3.org/2000/svg">
    <path d="m83.905 115.34h-42.665v-42.71l-37.912-44.982c-1.495-1.86-2.53-3.7925-3.005-5.5775-0.44751-1.68-0.44-3.32 0.084975-4.775 0.575-1.61 1.73-2.9075 3.4775-3.725 1.2025-0.55999 2.69-0.88 4.465-0.88749l109.82-0.01496c1.9825-0.07255 3.7375 0.24001 5.1852 0.86001 1.7549 0.7425 3.0698 1.9675 3.8597 3.5425 0.76264 1.525 0.98273 3.3175 0.58522 5.265-0.37489 1.81-1.2926 3.7775-2.8301 5.79l-37.985 44.525v42.69z"
          stroke-width=".24999"/>
</svg>
