<?xml version="1.0" encoding="utf-8"?>
<svg version="1.1" id="Layer_1" xmlns="http://www.w3.org/2000/svg" viewBox="0 0 105.762 122.88" enable-background="new 0 0 105.762 122.88" fill="currentColor"
     xml:space="preserve"><g><path d="M86.27,112.663c0.195-19.858-6.947-33.132-16.682-39.914c-3.773-2.629-7.914-4.284-12.133-4.97 c-4.236-0.685-8.583-0.408-12.747,0.828c-13.737,4.082-25.458,18.735-25.215,44.055L86.27,112.663L86.27,112.663L86.27,112.663z M19.977,19.522h65.814c0.346-2.922,0.514-6.025,0.479-9.307H19.496C19.462,13.498,19.629,16.6,19.977,19.522L19.977,19.522z M0.91,112.663h9.567c-0.256-27.544,12.171-44.634,27.549-51.198c-15.389-6.566-27.821-23.676-27.549-51.252L0.91,10.214 c-0.501,0-0.909-0.46-0.909-1.025L0,1.024C0,0.46,0.409,0,0.91,0h103.942c0.5,0,0.91,0.46,0.91,1.024v8.164 c0,0.564-0.41,1.025-0.91,1.025h-9.57c0.225,23.213-8.58,39.037-20.545,47.375c-2.188,1.522-4.543,2.832-6.994,3.873 c2.447,1.049,4.809,2.355,6.992,3.88c11.955,8.332,20.756,24.138,20.545,47.32l9.572,0.001c0.5,0,0.91,0.463,0.91,1.027v8.162 c0,0.564-0.41,1.027-0.91,1.027H0.91c-0.501,0-0.909-0.463-0.909-1.027v-8.162C0.001,113.126,0.41,112.663,0.91,112.663 L0.91,112.663z"/></g>
</svg>
