<?xml version="1.0" encoding="UTF-8" standalone="no"?>
<svg
        version="1.1"
        viewBox="0 0 57.288 122.88"
        enable-background="new 0 0 57.288 122.88"
        xml:space="preserve"
        id="svg4"
        xmlns="http://www.w3.org/2000/svg"
><defs
   id="defs8" />
        <path
   fill="currentColor"
   fill-rule="evenodd"
   clip-rule="evenodd"
   d="m 31.765146,11.695982 c 3.591544,0 6.417172,1.037143 8.475266,3.091999 2.036234,2.048378 3.064471,4.863481 3.064471,8.485792 0,3.674126 -1.751242,6.940197 -5.279634,9.804688 -3.547014,2.864491 -7.661583,4.305643 -12.350183,4.305643 -3.523535,0 -6.324874,-0.986137 -8.472838,-2.963267 -2.146344,-1.9998 -3.219111,-4.586586 -3.219111,-7.804079 0,-4.053846 1.751242,-7.547424 5.234294,-10.514739 3.481434,-2.935739 7.662393,-4.406037 12.547735,-4.406037 z M 51.835205,111.18402 H 5.4527947 v -7.80489 H 14.168523 V 55.707779 H 5.4527947 V 49.494635 H 27.130791 c 5.475566,0 10.863692,-0.657424 16.186237,-1.9998 v 55.884295 h 8.518177 z"
   id="path2"
   style="stroke-width:0.809636" />
</svg>
