<?xml version="1.0" encoding="UTF-8" standalone="no"?>
<svg
        fill-rule="evenodd"
        clip-rule="evenodd"
        viewBox="0 0 167.35126 167.35125"
        version="1.1"
        fill="currentColor"
        xmlns="http://www.w3.org/2000/svg">
    <path
            d="m 77.635,10.075 c 0,-1.95 0.8,-3.73 2.08,-5 2.74,-2.77 7.27,-2.76 10.02,-0.01 l 0.14,0.16 c 1.24453,1.30817 1.93903,3.0444 1.94,4.85 v 12.95 c 0,1.95 -0.8,3.73 -2.08,5.01 -2.75,2.75 -7.27,2.75 -10.02,0 -1.3306,-1.32788 -2.07886,-3.13018 -2.08,-5.01 z m 6.05,31.17 c 11.72,0 22.32,4.75 30,12.430001 7.67,7.680001 12.43,18.290001 12.43,30.000001 0,11.72 -4.75,22.319998 -12.43,29.999998 -7.68,7.68 -18.28,12.43 -30,12.43 -11.72,0 -22.32,-4.75 -30.01,-12.43 -7.67,-7.68 -12.43,-18.279998 -12.43,-29.999998 0,-11.72 4.76,-22.32 12.43,-30.000001 C 61.365,46.005 71.975,41.245 83.685,41.245 Z m -56.33,-5.34 c -1.32415,-1.33137 -2.06823,-3.13226 -2.07,-5.01 0,-3.9 3.18,-7.09 7.09,-7.09 1.81,0 3.62,0.69 5,2.07 l 9.16,9.16 c 1.33238,1.32668 2.08096,3.12975 2.08,5.01 0,1.8 -0.7,3.62 -2.08,5.01 -1.32618,1.33313 -3.12957,2.08184 -5.01,2.08 -1.8,0 -3.61,-0.7 -5,-2.07 z m -17.28,53.810002 c -1.95,0 -3.73,-0.8 -5,-2.08 -2.77,-2.74 -2.76,-7.27 -0.01,-10.01 l 0.15,-0.14 c 1.31057,-1.24709 3.05091,-1.9418 4.86,-1.94 h 12.94 c 3.91753,-0.004 7.09443,3.17247 7.09,7.09 0,1.95 -0.8,3.73 -2.07,5.01 -1.33289,1.32799 -3.13846,2.07252 -5.02,2.07 z M 35.895,139.995 c -1.32488,1.32775 -3.1243,2.07272 -5,2.07 -3.91,0 -7.09,-3.16 -7.09,-7.08 0,-1.81 0.68,-3.62 2.07,-5.01 l 9.31,-9.29 c 1.30943,-1.24886 3.05052,-1.94386 4.86,-1.94 3.9157,0 7.09,3.1743 7.09,7.09 0,1.79 -0.69,3.6 -2.08,4.99 z m 53.82,17.29 c 0,1.94 -0.8,3.73 -2.08,5 -2.74,2.76 -7.27,2.75 -10.02,0 l -0.13,-0.15 c -1.24532,-1.30766 -1.93995,-3.04423 -1.94,-4.85 v -12.95 c 0,-1.96 0.8,-3.73 2.07,-5.01 2.76,-2.75 7.27,-2.75 10.03,0 1.32545,1.3305 2.06976,3.13195 2.07,5.01 z m 50.28,-25.83 c 1.32965,1.3277 2.07472,3.13097 2.07,5.01 0,3.89 -3.18,7.09 -7.08,7.09 -1.81,0 -3.63,-0.69 -5.01,-2.07 l -9.16,-9.16 c -1.32836,-1.33265 -2.07296,-3.13838 -2.07,-5.02 0,-3.9 3.18,-7.09 7.08,-7.09 1.8,0 3.61,0.7 5,2.08 z m 17.29,-53.819998 c 1.93,0 3.73,0.81 5,2.08 2.76,2.75 2.75,7.27 0,10.02 l -0.15,0.14 c -1.31129,1.23966 -3.04551,1.93334 -4.85,1.94 h -12.95 c -1.96,0 -3.74,-0.8 -5.01,-2.08 -2.76,-2.75 -2.76,-7.27 0,-10.02 1.32568,-1.33388 3.1294,-2.08273 5.01,-2.08 z M 131.455,27.355 c 1.32644,-1.32542 3.12485,-2.06997 5,-2.07 3.9,0 7.1,3.19 7.1,7.09 0,1.81 -0.69,3.62 -2.07,5 l -9.32,9.31 c -1.31657,1.23647 -3.05384,1.92638 -4.86,1.93 -3.91,0 -7.09,-3.18 -7.09,-7.09 0,-1.8 0.7,-3.61 2.08,-5 z"
            id="path1158"/>
</svg>
