<svg xmlns="http://www.w3.org/2000/svg" viewBox="0 0 25 25">
    <g>
        <path fill="currentColor" d="M23.5 23H2V1.5a.5.5 0 0 0-1 0v22a.5.5 0 0 0 .5.5h22a.5.5 0 0 0 0-1z"/>
        <path fill="currentColor"
              d="M4.5 15A1.5 1.5 0 0 0 6 13.5a1.48 1.48 0 0 0-.79-1.31L7.32 8h.31l4.17 9.19A1.5 1.5 0 1 0 14 18.5a1.48 1.48 0 0 0-.79-1.31L15.32 13h.18a1.5 1.5 0 0 0 1.5-1.47l4.15-1.39A1.5 1.5 0 1 0 22.5 8a1.5 1.5 0 0 0-1.45 1.12l-4.37 1.46a1.5 1.5 0 1 0-2.26 2l-1.9 3.8-4-8.76A1.53 1.53 0 0 0 9 6.5a1.5 1.5 0 1 0-2.58 1L4.17 12a1.5 1.5 0 0 0 .33 3zm8 4a.5.5 0 1 1 .5-.5.5.5 0 0 1-.5.5zm10-10a.5.5 0 1 1-.5.5.5.5 0 0 1 .5-.5zm-7 2a.5.5 0 1 1-.5.5.5.5 0 0 1 .5-.5zm-8-5a.5.5 0 1 1-.5.5.5.5 0 0 1 .5-.5zm-3 7a.5.5 0 1 1-.5.5.5.5 0 0 1 .5-.5z"/>
    </g>
</svg>
