<?xml version="1.0" encoding="UTF-8" standalone="no"?>
<svg data-name="Layer 1"
     version="1.1"
     viewBox="0 0 367.14365 365.90999"
     id="svg38"
     width="367.14365"
     height="365.91"
     xmlns="http://www.w3.org/2000/svg">
    <g
            id="g2355">
        <path
                fill="currentColor"
                d="m 244.14652,273.21 c 0,0 -32.37,-61.61 -43.9,-107.79 -9.05,-36.28 11.81,-73.71 47.86,-83.65 0.48,-0.13 0.96,-0.26 1.45,-0.39 6.42,-1.66 11.96,-6 14.62,-12.08 1.47,-3.35 2.32,-7.56 1.79,-12.77 -0.32,-3.16 -2.57,-5.81 -5.64,-6.65 -8.03,-2.17 -27.49,-2.15 -69.95,20.19 l 31.39,-24.93 c 0,0 9.54,0.51 20.31,-10.26 l -5.33,1.44 c 0,0 3.39,-5.23 0,-8.62 0,0 15.39,-8 15.39,-27.7 0,0 7.8,9.0299997 9.23,18.26 0,0 13.75,-8.6200003 36.52,-6.36 l -22.16,7.8 c 0,0 6.36,0.51 10.21,6.36 l -11.7,-3.39 c 0,0 1.38,0.71 3.48,2.3 21.32,16.09 18.68,50.18 -0.61,66.66 -17.72,15.14 -47.97,22.31 -45.47,51.66 1.22,14.24 10.73,22.22 18.44,23.93 0,0 -21.43,35.63 -5.95,105.99 z"
                id="path8"/>
        <polygon
                fill="currentColor"
                points="374.37,121.35 395.3,119.5 320.05,162.74 374.37,137.35 283.48,185.16 "
                id="polygon10"
                transform="translate(-178.43348,-78.06)"/>
        <path
                fill="currentColor"
                d="m 203.01652,37.29 c 0,0 5.69,-18.31 19.24,-24.47 0,0 -8,10.31 -9.62,16.93 0,0 16.34,-17.03 22.7,-3.39 0,0 -3.14,-1.32 -6.78,-1.19 -3.41,0.12 -6.41,2.25 -7.86,5.34 -1,2.13 -3,4.98 -6.7,5.91 0,0 -4.82,2.15 -10.98,0.87 z"
                id="path12"/>
        <path
                fill="currentColor"
                d="m 230.14652,29.6 c 0.62,0.52 1.12,1.21 1.42,1.93 0.89,2.1 0.3,4.34 -0.96,6.16 0.37,-0.53 0.04,-1.98 -0.11,-2.52 -0.27,-0.95 -0.85,-1.74 -1.69,-2.26 -0.96,-0.6 -2.69,-0.59 -3.3,-1.64 -0.61,-1.05 0.51,-2.02 1.39,-2.35 1.2,-0.45 2.36,-0.07 3.26,0.68 z"
                id="path14"/>
        <path
                fill="currentColor"
                d="m 260.24652,217.33 c 0,0 4.72,-70.36 40.51,-55.88 3.07,1.24 5.89,2.99 8.51,5.02 15.88,12.3 76.91,69.07 51.96,199.44 0,0 -10.5,-30.69 -18.8,-61.5 0,0 0.69,36.66 -9.04,59.96 0,0 -14.62,-65.7 -15.29,-89.78 0,0 -4.94,36.39 -11.46,59.9 0,0 -20.88,-66.9 -14.36,-100.97 0,0 -7.67,27.35 -12.46,52.4 0,0 -18.32,-50.59 0.21,-107.11 l -19.76,38.51 z"
                id="path16"/>
        <path
                fill="currentColor"
                d="m 7.4265197,209.87 81.8800003,-1.98 70.86,76.56 -4.62,4.62 -70.48,-75.67 -79.3300003,1.09 c -3.65,0.05 -6.38999998,-3.32 -5.59999998,-6.89 l 2.43999998,-10.94 0.42,9.1 c 0.11,2.34 2.07,4.17 4.41,4.11 z"
                id="path22"/>
        <path
                fill="currentColor"
                d="m 33.98652,205.04 74.79,-14.16 c 0,0 31.7,52.01 57.24,68.94 l -15.7,4 -54.170003,-63.71 -62.169997,4.92"
                id="path24"/>
        <path
                fill="currentColor"
                d="m 13.98652,205.04 98.18,-20.62 c 0,0 28.31,49.24 48.01,60.32 l 21.85,-3.41 c 0,0 -35.7,-27.37 -65.86,-86.15 l -82.17,38.47 79.1,-24.93 -99.1,36.32 z"
                id="path26"/>
        <polygon
                fill="currentColor"
                points="261.05,222.99 196.11,278.03 269.75,237.56 "
                id="polygon28"
                transform="translate(-178.43348,-78.06)"/>
        <path
                fill="currentColor"
                d="m 54.49652,144.93 7.5,12.1 -30.16,24.93 18.77,-22.16 c 0,0 -37.66,37.89 -36.62,36.86 1.04,-1.03 40.51,-51.73 40.51,-51.73 z"
                id="path30"/>
        <polygon
                fill="currentColor"
                points="189.96,273.26 209.96,225.55 216.41,232.02 "
                id="polygon32"
                transform="translate(-178.43348,-78.06)"/>
    </g>
</svg>
