<svg xmlns="http://www.w3.org/2000/svg" xml:space="preserve" viewBox="0 0 128 128">
    <path fill="currentColor" d="M128 63.997c0 2.01-.797 3.827-2.136 5.135-1.308 1.339-3.125 2.136-5.166 2.136H71.302v49.425c0 4.017-3.284 7.302-7.302 7.302-2.009 0-3.827-.83-5.166-2.137-1.308-1.339-2.136-3.156-2.136-5.166V71.268H7.302c-4.05 0-7.302-3.253-7.302-7.27 0-2.01.797-3.859 2.136-5.167a7.274 7.274 0 0 1 5.166-2.137h49.395V7.27c0-4.017 3.284-7.27 7.302-7.27 2.009 0 3.827.83 5.166 2.136a7.253 7.253 0 0 1 2.136 5.134v49.425h49.395A7.282 7.282 0 0 1 128 63.997"/>
</svg>
