<svg xmlns="http://www.w3.org/2000/svg" xml:space="preserve" viewBox="0 0 122.879 122.879"><path d="M61.44 0C45.714 0 29.99 5.998 17.993 17.994-6 41.988-6 80.891 17.993 104.884c23.994 23.994 62.897 23.994 86.89 0 23.994-23.993 23.994-62.896 0-86.89C92.889 5.998 77.165 0 61.44 0m.246 27.246c4.266.005 7.695 3.443 7.66 7.678l-.13 18.615 18.65-.13a7.639 7.639 0 0 1 7.712 7.671c-.01 4.27-3.479 7.756-7.748 7.79L69.107 69l-.13 18.744c-.035 4.234-3.522 7.663-7.788 7.658-4.266-.005-7.695-3.444-7.66-7.68l.13-18.613-18.65.131a7.64 7.64 0 0 1-7.712-7.672c.01-4.27 3.479-7.756 7.748-7.789l18.723-.13.13-18.745c.036-4.234 3.522-7.663 7.788-7.658"/></svg>