<?xml version="1.0" encoding="UTF-8"?>
<svg version="1.1" viewBox="0 0 128 128"
     xmlns="http://www.w3.org/2000/svg">
    <path d="m111.56 49.755a13.747 13.747 0 0 1 13.882 13.805c-0.018 7.683-6.26 13.959-13.942 14.019l-33.693 0.235-0.235 33.73c-0.063 7.619-6.338 13.789-14.014 13.78-7.678-0.01-13.848-6.197-13.785-13.818l0.233-33.497-33.558 0.235a13.747 13.747 0 0 1-13.881-13.804c0.018-7.683 6.261-13.959 13.943-14.018l33.692-0.236 0.236-33.73c0.064-7.619 6.338-13.789 14.014-13.78 7.678 9e-3 13.848 6.197 13.784 13.818l-0.233 33.497z"
          clip-rule="evenodd"/>
</svg>
