<?xml version="1.0" encoding="UTF-8" standalone="no"?>
<svg viewBox="0 0 115 115"
     version="1.1"
     xmlns="http://www.w3.org/2000/svg">
    <path fill="currentColor"
          d="m 33.896591,63.236313 c -9.5192,0 -17.262799,-7.743599 -17.262799,-17.262798 0,-9.519201 7.743599,-17.262799 17.262799,-17.262799 9.5192,0 17.262798,7.743598 17.262798,17.262799 0,9.519199 -7.743598,17.262798 -17.262798,17.262798 M 53.482469,107.62637 H 14.308247 A 10.017355,10.017355 0 0 1 4.3007558,97.618876 c 0,-16.315812 13.2775582,-29.593369 29.5933692,-29.593369 16.318277,0 29.593369,13.277557 29.593369,29.593369 A 10.017355,10.017355 0 0 1 53.482469,107.62637 m 9.023936,-72.545032 a 3.32,3.32 0 0 1 6.29,-2.11 c 1.14,3.39 1.69,8.66 1.6,13.67 -0.09,5.01 -0.81,9.72 -2.19,12.57 a 3.3342203,3.3342203 0 0 1 -6,-2.91 c 1,-2 1.47,-5.76 1.55,-9.77 a 38.19,38.19 0 0 0 -1.27,-11.45 z m 17.14,-12.4 a 3.3288512,3.3288512 0 0 1 6.15,-2.55 c 3.08,7.4 4.75,16.71 4.89,26 0.14,9.29 -1.21,18.25 -4.14,25.51 a 3.3137366,3.3137366 0 0 1 -6.15,-2.47 c 2.6,-6.44 3.79,-14.67 3.67,-23 -0.12,-8.33 -1.63,-16.86 -4.41,-23.5 z m 16.57,-10.54 a 3.3277042,3.3277042 0 1 1 6.000005,-2.8799999 89.44,89.44 0 0 1 8.48,37.5299999 c 0.1,12.58 -2.44,25.12 -8,35.81 a 3.31,3.31 0 1 1 -5.890005,-3 c 5.000005,-9.71 7.320005,-21.17 7.230005,-32.72 a 82.47,82.47 0 0 0 -7.830005,-34.7 z"/>
</svg>
