<svg xmlns="http://www.w3.org/2000/svg" fill-rule="evenodd" clip-rule="evenodd" image-rendering="optimizeQuality"
     shape-rendering="geometricPrecision" text-rendering="geometricPrecision" viewBox="0 0 512 410.73">
    <path d="M472.7.04 33.4.1c-7.1.03-13.05 1.31-17.86 3.55-6.99 3.27-11.61 8.46-13.91 14.9-2.1 5.82-2.13 12.38-.34 19.1 1.9 7.14 6.04 14.871 12.02 22.31l151.65 179.93v170.84h183v-1.959c-23.031-3.978-43.664-15.034-59.495-30.857-20.06-20.07-32.51-47.839-32.51-78.459 0-30.62 12.45-58.391 32.51-78.451 20.07-20.07 47.84-32.52 78.46-32.52 7.857 0 15.522.833 22.92 2.391L499.9 61.869c6.15-8.05 9.82-15.918 11.32-23.158 1.59-7.79.71-14.96-2.34-21.06-3.16-6.3-8.42-11.2-15.44-14.17C487.65 1 480.63-.252 472.7.038Z"/>
    <path d="M367.081 196.43c-28.443 0-54.24 11.565-72.884 30.209-18.634 18.634-30.2 44.431-30.2 72.875 0 28.444 11.566 54.24 30.2 72.883 18.643 18.634 44.44 30.199 72.884 30.199 28.444 0 54.24-11.565 72.874-30.2 18.644-18.643 30.208-44.438 30.208-72.882 0-28.444-11.564-54.241-30.208-72.875-18.634-18.644-44.43-30.209-72.874-30.209zm-23.974 57.908c1.837.005 3.667.699 5.033 2.064l18.96 18.95 18.95-18.97c2.768-2.758 7.384-2.674 10.088.03l14.055 14.053c2.731 2.731 2.73 7.368.018 10.08l-18.968 18.958 18.968 18.95c2.713 2.732 2.732 7.359-.018 10.108l-14.055 14.054c-2.74 2.74-7.321 2.786-10.108.009l-18.949-18.949-18.95 18.949c-2.731 2.73-7.321 2.777-10.099 0l-14.053-14.045c-2.787-2.777-2.787-7.33-.01-10.116l18.951-18.949-18.941-18.941c-2.787-2.796-2.769-7.33.018-10.108l14.035-14.054a7.125 7.125 0 0 1 5.075-2.073z"
          style="fill:#000;stroke-width:.928927;fill-opacity:1"/>
</svg>