<?xml version="1.0" encoding="UTF-8"?>
<svg width="120" height="120" clip-rule="evenodd" version="1.1" viewBox="0 0 120 120" xmlns="http://www.w3.org/2000/svg">
 <path d="m71.758 15.476a45.771 45.794 0 0 1 11.123 5.0415l5.9863-6.0186a7.4219 7.4255 0 0 1 10.469 0l6.1328 6.1651a7.4219 7.4255 0 0 1 0 10.474l-6.4453 6.4485a45.508 45.53 0 0 1 4.2383 10.679h9.2969a7.4219 7.4255 0 0 1 7.4414 7.4255v8.6957a7.4219 7.4255 0 0 1-7.4023 7.406h-9.3848a45.732 45.755 0 0 1-4.2676 10.562l6.5234 6.5559a7.4219 7.4255 0 0 1 0 10.474l-6.123 6.1358a7.4316 7.4353 0 0 1-10.479 0l-6.1914-6.2042a46.113 46.136 0 0 1-10.928 4.8852v8.3928a7.4219 7.4255 0 0 1-7.4023 7.406h-8.6816a7.4219 7.4255 0 0 1-7.4023-7.406v-7.5818a46.279 46.302 0 0 1-12.061-4.5726l-5.0781 5.0806a7.4414 7.445 0 0 1-10.469 0l-6.1621-6.1651a7.4316 7.4353 0 0 1 0-10.474l4.6094-4.6116a46.27 46.292 0 0 1-5.4297-12.477h-6.2695a7.4219 7.4255 0 0 1-7.4023-7.406v-8.6957a7.4219 7.4255 0 0 1 7.4023-7.4255h6.2012a46.094 46.116 0 0 1 5.3809-12.643l-4.4922-4.4846a7.4414 7.445 0 0 1 0-10.474l6.1621-6.1651a7.4219 7.4255 0 0 1 10.469 0l4.8828 4.8852a45.508 45.53 0 0 1 12.236-4.7289v-7.2496a7.4219 7.4255 0 0 1 7.4219-7.406h8.6914a7.4219 7.4255 0 0 1 7.4023 7.406zm-13.301 20.362a24.023 24.035 0 1 1-24.023 24.025 24.014 24.025 0 0 1 24.023-24.025" fill="currentColor" fill-rule="evenodd" stroke-width=".9768"/>
</svg>
