<?xml version="1.0" encoding="utf-8"?>
<svg version="1.1" id="Layer_1" xmlns="http://www.w3.org/2000/svg" xmlns:xlink="http://www.w3.org/1999/xlink" x="0px" y="0px" viewBox="0 0 122.88 95.13" style="enable-background:new 0 0 122.88 95.13"
     xml:space="preserve">
        <path fill="currentColor" d="M100.95,23.32c0-2.09,1.69-3.78,3.78-3.78c2.09,0,3.78,1.69,3.78,3.78v48.5c0,2.09-1.69,3.78-3.78,3.78 c-2.09,0-3.78-1.69-3.78-3.78V23.32L100.95,23.32z M0,31.82c0-2.09,1.69-3.78,3.78-3.78c2.09,0,3.78,1.69,3.78,3.78v31.49 c0,2.09-1.69,3.78-3.78,3.78C1.69,67.09,0,65.4,0,63.31V31.82L0,31.82z M14.42,23.32c0-2.09,1.69-3.78,3.78-3.78 c2.09,0,3.78,1.69,3.78,3.78v48.5c0,2.09-1.69,3.78-3.78,3.78c-2.09,0-3.78-1.69-3.78-3.78V23.32L14.42,23.32z M28.9,13.9 c0-2.08,1.67-3.76,3.72-3.76c2.06,0,3.72,1.68,3.72,3.76v67.34c0,2.08-1.67,3.76-3.72,3.76c-2.06,0-3.72-1.68-3.72-3.76V13.9 L28.9,13.9z M43.26,3.78c0-2.09,1.69-3.78,3.78-3.78c2.09,0,3.78,1.69,3.78,3.78v87.57c0,2.09-1.69,3.78-3.78,3.78 c-2.09,0-3.78-1.69-3.78-3.78V3.78L43.26,3.78z M86.53,31.82c0-2.09,1.69-3.78,3.78-3.78c2.09,0,3.78,1.69,3.78,3.78v31.49 c0,2.09-1.69,3.78-3.78,3.78c-2.09,0-3.78-1.69-3.78-3.78V31.82L86.53,31.82z M72.11,23.32c0-2.09,1.69-3.78,3.78-3.78 c2.09,0,3.78,1.69,3.78,3.78v48.5c0,2.09-1.69,3.78-3.78,3.78c-2.09,0-3.78-1.69-3.78-3.78V23.32L72.11,23.32z M57.74,13.9 c0-2.08,1.67-3.76,3.72-3.76c2.06,0,3.72,1.68,3.72,3.76v67.34c0,2.08-1.67,3.76-3.72,3.76c-2.06,0-3.72-1.68-3.72-3.76V13.9 L57.74,13.9z M115.43,13.9c0-2.08,1.67-3.76,3.72-3.76c2.06,0,3.72,1.68,3.72,3.76v67.34c0,2.08-1.67,3.76-3.72,3.76 c-2.06,0-3.72-1.68-3.72-3.76V13.9L115.43,13.9z"/>
</svg>
