<svg xmlns="http://www.w3.org/2000/svg" xml:space="preserve" style="enable-background:new 0 0 122.88 119.82" viewBox="0 0 122.88 119.82">
    <path fill="currentColor" d="M83.71 62.41h37.6v44.03c-.07 1.23-1.66 1.26-3.38 1.18h-34.8c-2.38 0-4.32 1.94-4.32 4.31 0 2.38 1.94 4.32 4.32 4.32h36.38v-4.59h3.38v5.84c0 1.06-.87 1.93-1.93 1.93H83.29c-4.27 1.58-7.77-1.91-7.77-6.19V70.59c0-4.5 3.68-8.18 8.19-8.18M38.9 89.17c-1.86 0-3.35-1.5-3.35-3.34 0-1.85 1.51-3.34 3.35-3.34h8.15c1.86 0 3.35 1.5 3.35 3.34 0 1.85-1.5 3.34-3.35 3.34zm-17.34-3.34c0-1.85 1.51-3.34 3.34-3.34h.74c1.86 0 3.34 1.5 3.34 3.34 0 1.85-1.5 3.34-3.34 3.34h-.74c-1.85 0-3.34-1.49-3.34-3.34m0-54.72c0-1.85 1.51-3.34 3.34-3.34h.88c1.86 0 3.35 1.5 3.35 3.34 0 1.85-1.5 3.34-3.35 3.34h-.88c-1.84 0-3.34-1.5-3.34-3.34m3.34 30.7c-1.86 0-3.34-1.5-3.34-3.35s1.51-3.34 3.34-3.34h.88c1.86 0 3.35 1.5 3.35 3.34 0 1.85-1.5 3.35-3.35 3.35zm14-27.36c-1.86 0-3.35-1.51-3.35-3.34 0-1.85 1.51-3.34 3.35-3.34h37.93c1.86 0 3.34 1.5 3.34 3.34 0 1.85-1.5 3.34-3.34 3.34zM7.77 0h87.85c2.14 0 4.09.87 5.49 2.27a7.78 7.78 0 0 1 2.27 5.49v41.15h-6.67V7.79c0-.3-.12-.57-.32-.78-.2-.19-.48-.32-.78-.32H7.77c-.3 0-.58.12-.78.32-.21.19-.31.48-.31.78v101.23c0 .3.12.57.32.78.19.21.47.32.78.32h52.77c.63 2.45 1.33 4.6 2.29 6.64H7.77c-2.15 0-4.09-.87-5.49-2.27A7.681 7.681 0 0 1 0 109.01V7.77c0-2.14.87-4.1 2.27-5.5A7.744 7.744 0 0 1 7.77 0M38.9 61.81a3.344 3.344 0 1 1 0-6.69h24.96c1.86 0 3.34 1.5 3.34 3.34 0 1.85-1.5 3.35-3.34 3.35zm46.33 6.99h1.36c.7 0 1.27.46 1.27 1.03V102c0 .56-.57 1.03-1.27 1.03h-1.36c-.7 0-1.27-.46-1.27-1.03V69.83c0-.57.57-1.03 1.27-1.03" style="fill-rule:evenodd;clip-rule:evenodd"/>
</svg>
